<svg width="400" height="400" viewBox="0 0 400 400" fill="none" xmlns="http://www.w3.org/2000/svg">
<path d="M191.885 22.1699C196.617 19.5248 202.383 19.5248 207.116 22.1699L354.126 104.338C359.061 107.096 362.119 112.309 362.119 117.963V281.183C362.119 286.837 359.061 292.049 354.126 294.808L207.116 376.976C202.383 379.621 196.617 379.621 191.885 376.976L44.8747 294.808C39.9391 292.049 36.8812 286.837 36.8812 281.183V117.963C36.8812 112.309 39.9391 107.096 44.8747 104.338L191.885 22.1699Z" fill="black" stroke="#EBFF00" stroke-width="9"/>
<path d="M265.286 135.891H249.214V263.211H265.286V135.891Z" fill="#EBFF00"/>
<path d="M192.543 207.322H133.717V191.886H192.543C203.573 191.886 212.555 182.784 212.555 171.607C212.555 160.429 203.573 151.327 192.543 151.327H133.717V135.891H192.543C211.977 135.891 227.787 151.912 227.787 171.607C227.787 191.301 211.977 207.322 192.543 207.322Z" fill="#EBFF00"/>
<path d="M149.789 196.192H133.717V263.258H149.789V196.192Z" fill="#EBFF00"/>
<path d="M217.967 263.229H235.668L198.796 197.068L184.877 205.212L217.967 263.229Z" fill="#EBFF00"/>
</svg>
